# xmcd CD database file
# Generated: Wed Oct 3 23:26:29 2001 by KSCD
# 
# Track frame offsets:
#       150
#       17566
#       35321
#       61963
#       84289
#       105954
#       129575
#       152829
#       171691
#       188413
#
# Disc length: 3021 seconds
#
# Revision: 5
# Processed by: cddbd v1.4PL0 Copyright (c) Steve Scherf et al.
# Submitted via: Kscd 1.3.0
#
DISCID=710bcb0a
DTITLE=DE LAS ALTURAS/Sound of the Inkas
DYEAR=1900
DGENRE=
TTITLE0=YESTERDAY/John Lennon/Paul McCartey
TTITLE1=GUANTANAMERA/Jose Marti D.R
TTITLE2=MY WAY/C.Francois/J.Revaux
TTITLE3=GRACIAS A LA VIDA/Violetta Parra/D.R
TTITLE4=HEY JUDE/John Lennon/Paul McCartey
TTITLE5=YOLANDA/Pablo Milanese/D.R
TTITLE6=THEME FORM DYNG YONG/Dolly Parton/D.R
TTITLE7=WE ARE THE WORLD/Michael Jackson/D.R
TTITLE8=WIND OF CHANGE/Scorpions/D.R
TTITLE9=EL CONCIERTO PARA UNA SOLA VOZ/Pourri de clasicos del mundo/D.R
EXTD=DE LAS ALTURAS\nSound of the Inkas\n\nEXPRESSION INK'AS
EXTT0=
EXTT1=
EXTT2=
EXTT3=
EXTT4=
EXTT5=
EXTT6=
EXTT7=
EXTT8=
EXTT9=EL CONDOR PASA /SONIDO DEL SILENCIO /EL DOLAR FURADO
PLAYORDER=
